HIERARCHY
ROOT joint_Root
{
	OFFSET 0.0 0.0 0.0
	CHANNELS 6 Xposition Yposition Zposition Zrotation Xrotation Yrotation 
	JOINT Hips
	{
		OFFSET 4.5925 91.4895 -427.239
		CHANNELS 6 Xposition Yposition Zposition Zrotation Xrotation Yrotation 
		JOINT Spine
		{
			OFFSET 15.7357 0.0 0.0
			CHANNELS 6 Xposition Yposition Zposition Zrotation Xrotation Yrotation 
			JOINT Chest
			{
				OFFSET 8.98455 -0.406207 0.0
				CHANNELS 6 Xposition Yposition Zposition Zrotation Xrotation Yrotation 
				JOINT Neck
				{
					OFFSET 16.3773 0.0 0.0
					CHANNELS 6 Xposition Yposition Zposition Zrotation Xrotation Yrotation 
					JOINT Head
					{
						OFFSET 6.45672 0.0 0.0
						CHANNELS 6 Xposition Yposition Zposition Zrotation Xrotation Yrotation 
						End Site
						{
							OFFSET 0.0 0.0 0.0
						}
					}
				}
				JOINT Shoulder_L
				{
					OFFSET 12.9942 -0.242716 4.98039
					CHANNELS 6 Xposition Yposition Zposition Zrotation Xrotation Yrotation 
					JOINT UpperArm_L
					{
						OFFSET 5.34809 0.0 0.0
						CHANNELS 6 Xposition Yposition Zposition Zrotation Xrotation Yrotation 
						JOINT LowerArm_L
						{
							OFFSET 24.3286 1.87007e-05 0.0
							CHANNELS 6 Xposition Yposition Zposition Zrotation Xrotation Yrotation 
							JOINT Hand_L
							{
								OFFSET 22.2916 0.0 0.0
								CHANNELS 6 Xposition Yposition Zposition Zrotation Xrotation Yrotation 
								End Site
								{
									OFFSET 0.0 0.0 0.0
								}
							}
						}
					}
				}
				JOINT Shoulder_R
				{
					OFFSET 12.9945 -0.242716 -4.98039
					CHANNELS 6 Xposition Yposition Zposition Zrotation Xrotation Yrotation 
					JOINT UpperArm_R
					{
						OFFSET -5.34813 0.0 0.0
						CHANNELS 6 Xposition Yposition Zposition Zrotation Xrotation Yrotation 
						JOINT LowerArm_R
						{
							OFFSET -24.3289 0.000322201 0.0
							CHANNELS 6 Xposition Yposition Zposition Zrotation Xrotation Yrotation 
							JOINT Hand_R
							{
								OFFSET -22.2915 -0.000108084 0.0
								CHANNELS 6 Xposition Yposition Zposition Zrotation Xrotation Yrotation 
								End Site
								{
									OFFSET 0.0 0.0 0.0
								}
							}
						}
					}
				}
			}
		}
		JOINT UpperLeg_L
		{
			OFFSET -2.19248 -6.46944 0.0
			CHANNELS 6 Xposition Yposition Zposition Zrotation Xrotation Yrotation 
			JOINT LowerLeg_L
			{
				OFFSET 39.0811 0.0 -1.23785e-05
				CHANNELS 6 Xposition Yposition Zposition Zrotation Xrotation Yrotation 
				JOINT Foot_L
				{
					OFFSET 40.9854 0.0 -1.26872e-05
					CHANNELS 6 Xposition Yposition Zposition Zrotation Xrotation Yrotation 
					JOINT Toes_L
					{
						OFFSET 11.7543 0.0 0.0
						CHANNELS 6 Xposition Yposition Zposition Zrotation Xrotation Yrotation 
						End Site
						{
							OFFSET 0.0 0.0 0.0
						}
					}
				}
			}
		}
		JOINT UpperLeg_R
		{
			OFFSET -2.19251 6.46944 0.0
			CHANNELS 6 Xposition Yposition Zposition Zrotation Xrotation Yrotation 
			JOINT LowerLeg_R
			{
				OFFSET -39.0811 -0.00228153 -0.0401928
				CHANNELS 6 Xposition Yposition Zposition Zrotation Xrotation Yrotation 
				JOINT Foot_R
				{
					OFFSET -40.9854 0.0 0.0
					CHANNELS 6 Xposition Yposition Zposition Zrotation Xrotation Yrotation 
					JOINT Toes_R
					{
						OFFSET -11.7543 0.0 0.0
						CHANNELS 6 Xposition Yposition Zposition Zrotation Xrotation Yrotation 
						End Site
						{
							OFFSET 0.0 0.0 0.0
						}
					}
				}
			}
		}
	}
}
MOTION
Frames:	4
Frame Time:	0.0333333
0.000000 0.000000 0.000000 0.000000 0.000000 -0.000000 -0.648384 90.488100 0.877526 89.158000 -5.944780 12.708400 15.735700 0.000005 -0.000001 88.509400 80.022000 -89.456400 8.984550 -0.406207 -0.000000 12.179800 -0.550845 -1.834690 16.377300 -0.000001 -0.000001 2.397170 -3.417840 0.572223 6.456720 -0.000001 -0.000000 -11.349600 -2.043200 -1.433240 12.994200 -0.242716 4.980390 -92.042600 7.873660 -75.407000 5.348090 -0.000007 -0.000001 -58.114000 41.166300 -19.027000 24.328600 0.000019 0.000005 8.190740 22.154500 -20.891200 22.291600 -0.000001 0.000005 10.830600 5.256440 1.261960 12.994500 -0.242716 -4.980390 88.566200 11.711700 -82.970600 -5.348130 -0.000001 -0.000004 -63.307400 31.127700 -12.676000 -24.328900 0.000322 -0.000009 0.729000 2.207700 -18.303800 -22.291500 -0.000108 -0.000004 14.004700 5.388800 -2.577190 -2.192480 -6.469440 -0.000000 -173.007000 -14.881100 4.067870 39.081100 -0.000007 -0.000012 -0.221381 0.360548 31.550900 40.985400 -0.000006 -0.000013 0.191739 4.585370 -72.221700 11.754300 -0.000000 0.000003 -0.000209 -0.001923 -16.650000 -2.192510 6.469440 -0.000001 173.059000 19.754400 -176.054000 -39.081100 -0.002282 -0.040193 -0.215505 0.361978 31.151900 -40.985400 0.000008 0.000006 3.031000 13.179100 -71.605000 -11.754300 -0.000006 -0.000006 -0.002316 -0.032606 -17.899000
0.000000 0.000000 0.000000 0.000000 0.000000 -0.000000 -0.502629 90.511500 0.744958 89.146000 -6.011640 12.609700 15.735700 0.000005 -0.000001 88.498000 80.064900 -89.508800 8.984550 -0.406207 -0.000000 12.093600 -0.554335 -1.962370 16.377300 -0.000001 -0.000001 3.061820 -3.444860 0.274368 6.456720 -0.000001 -0.000000 -10.515600 -1.926910 -2.488680 12.994200 -0.242716 4.980390 -92.072900 7.939610 -75.316900 5.348090 -0.000007 -0.000001 -58.085900 41.161200 -18.869700 24.328600 0.000019 0.000005 8.099850 22.055500 -20.756800 22.291600 -0.000001 0.000005 10.880000 5.255440 1.288600 12.994500 -0.242716 -4.980390 88.486200 11.759300 -82.611600 -5.348130 -0.000001 -0.000004 -63.399900 29.005600 -12.472800 -24.328900 0.000322 -0.000009 0.688262 2.022960 -18.820600 -22.291500 -0.000108 -0.000004 13.887400 5.395270 -2.784230 -2.192480 -6.469440 -0.000000 -173.148000 -14.924100 3.867150 39.081100 -0.000007 -0.000012 -0.218258 0.355670 31.535800 40.985400 -0.000006 -0.000013 0.284500 4.497850 -72.134500 11.754300 -0.000000 0.000003 -0.000204 -0.001884 -16.648600 -2.192510 6.469440 -0.000001 173.044000 19.766300 -176.260000 -39.081100 -0.002282 -0.040193 -0.214425 0.360913 31.101200 -40.985400 0.000008 0.000006 2.970880 13.295600 -71.434500 -11.754300 -0.000006 -0.000006 -0.002279 -0.032162 -17.880900
0.000000 0.000000 0.000000 0.000000 0.000000 -0.000000 -0.357546 90.524800 0.636939 89.134800 -6.079630 12.519800 15.735700 0.000005 -0.000001 88.471700 80.122400 -89.531300 8.984550 -0.406207 -0.000000 11.978200 -0.561168 -2.059800 16.377300 -0.000001 -0.000001 3.709960 -3.420110 -0.096288 6.456720 -0.000001 -0.000000 -9.471030 -1.787050 -3.651170 12.994200 -0.242716 4.980390 -92.100200 7.984860 -75.211700 5.348090 -0.000007 -0.000001 -58.114700 41.067700 -18.716900 24.328600 0.000019 0.000005 8.111740 22.212000 -20.657800 22.291600 -0.000001 0.000005 10.767200 5.254720 1.307440 12.994500 -0.242716 -4.980390 88.385700 11.794100 -82.149700 -5.348130 -0.000001 -0.000004 -63.398800 25.816800 -12.319500 -24.328900 0.000322 -0.000009 0.553450 1.556010 -19.624300 -22.291500 -0.000108 -0.000004 13.881800 5.397010 -2.840510 -2.192480 -6.469440 -0.000000 -173.292000 -14.948100 3.679470 39.081100 -0.000007 -0.000012 -0.212297 0.345716 31.553600 40.985400 -0.000006 -0.000013 0.368428 4.386000 -72.084900 11.754300 -0.000000 0.000003 -0.000212 -0.001945 -16.650800 -2.192510 6.469440 -0.000001 173.032000 19.748900 -176.462000 -39.081100 -0.002282 -0.040193 -0.215314 0.362559 31.089100 -40.985400 0.000008 0.000006 2.892090 13.341000 -71.295800 -11.754300 -0.000006 -0.000006 -0.002348 -0.032988 -17.914500
0.000000 0.000000 0.000000 0.000000 0.000000 -0.000000 -0.202464 90.532400 0.565358 89.128600 -6.170070 12.567800 15.735700 0.000005 -0.000001 88.401800 80.153200 -89.511200 8.984550 -0.406207 -0.000000 11.915500 -0.584623 -2.157100 16.377300 -0.000001 -0.000001 4.458540 -3.337940 -0.456368 6.456720 -0.000001 -0.000000 -8.383300 -1.525340 -4.896520 12.994200 -0.242716 4.980390 -92.118400 7.986220 -75.091300 5.348090 -0.000007 -0.000001 -58.127900 41.016900 -18.584400 24.328600 0.000019 0.000005 8.085880 22.222800 -20.588000 22.291600 -0.000001 0.000005 10.774600 5.254210 1.321220 12.994500 -0.242716 -4.980390 88.291700 11.794700 -81.698800 -5.348130 -0.000001 -0.000004 -62.963600 22.563800 -12.352600 -24.328900 0.000322 -0.000009 0.200256 0.528940 -20.852500 -22.291500 -0.000108 -0.000004 14.458200 5.398030 -2.873490 -2.192480 -6.469440 -0.000000 -173.371000 -15.053300 3.681510 39.081100 -0.000007 -0.000012 -0.210148 0.342081 31.563700 40.985400 -0.000006 -0.000013 0.481187 4.358330 -72.067000 11.754300 -0.000000 0.000003 -0.000202 -0.001868 -16.648000 -2.192510 6.469440 -0.000001 172.949000 19.657500 -176.489000 -39.081100 -0.002282 -0.040193 -0.214738 0.361800 31.075400 -40.985400 0.000008 0.000006 2.807860 13.439100 -71.187600 -11.754300 -0.000006 -0.000006 -0.002381 -0.033393 -17.931000
